<svg xmlns="http://www.w3.org/2000/svg" width="1200" height="630" viewBox="0 0 1200 630" role="img" aria-labelledby="title desc">
  <title id="title">2026 Pebble Beach and Monterey Car Week historical archive</title>
  <desc id="desc">Historical archive cover for the complete eleven-day Aug 7–17, 2026 public guide, with a stylized Monterey Peninsula route.</desc>
  <defs>
    <linearGradient id="bg" x1="0" y1="0" x2="1" y2="1">
      <stop offset="0" stop-color="#f7f3e9"/>
      <stop offset="1" stop-color="#d8e7df"/>
    </linearGradient>
    <linearGradient id="sea" x1="0" y1="0" x2="0.8" y2="1">
      <stop offset="0" stop-color="#c7ded7"/>
      <stop offset="1" stop-color="#89b8ac"/>
    </linearGradient>
    <filter id="shadow" x="-30%" y="-30%" width="160%" height="160%">
      <feDropShadow dx="0" dy="14" stdDeviation="18" flood-color="#173f36" flood-opacity="0.15"/>
    </filter>
  </defs>

  <rect width="1200" height="630" fill="url(#bg)"/>
  <circle cx="1090" cy="-55" r="310" fill="#e8d4bf" opacity="0.58"/>
  <circle cx="1050" cy="640" r="280" fill="#c1d9d1" opacity="0.44"/>

  <g transform="translate(742 52)" filter="url(#shadow)">
    <rect x="0" y="0" width="396" height="526" rx="34" fill="#fffdf7" stroke="#c7cec7" stroke-width="2"/>
    <path d="M58 0c18 74 6 111 41 155 31 38 99 38 118 85 17 42-26 70 7 112 26 34 88 31 121 66 24 25 31 68 51 108H0V0Z" fill="url(#sea)"/>
    <path d="M58 0c18 74 6 111 41 155 31 38 99 38 118 85 17 42-26 70 7 112 26 34 88 31 121 66 24 25 31 68 51 108" fill="none" stroke="#174f43" stroke-width="4"/>
    <path d="M105 145c58 43 79 90 112 128 33 37 88 38 123 81 21 25 29 54 40 96" fill="none" stroke="#c5522d" stroke-width="4" stroke-dasharray="10 10"/>
    <path d="M217 273c-28 28-50 57-62 92" fill="none" stroke="#174f43" stroke-width="3" stroke-dasharray="7 9" opacity=".7"/>

    <g font-family="-apple-system,BlinkMacSystemFont,'Segoe UI',sans-serif" font-weight="700" fill="#17201e">
      <g transform="translate(95 142)"><circle r="9" fill="#fffdf7" stroke="#174f43" stroke-width="4"/><text x="18" y="5" font-size="15">Pacific Grove</text></g>
      <g transform="translate(156 365)"><circle r="11" fill="#fffdf7" stroke="#c5522d" stroke-width="5"/><text x="-18" y="-17" text-anchor="end" font-size="16">Pebble Beach</text></g>
      <g transform="translate(218 272)"><circle r="9" fill="#fffdf7" stroke="#174f43" stroke-width="4"/><text x="18" y="5" font-size="15">Monterey</text></g>
      <g transform="translate(302 352)"><circle r="9" fill="#fffdf7" stroke="#174f43" stroke-width="4"/><text x="18" y="5" font-size="15">Seaside</text></g>
      <g transform="translate(360 451)"><circle r="11" fill="#fffdf7" stroke="#c5522d" stroke-width="5"/><text x="-18" y="-17" text-anchor="end" font-size="16">Laguna Seca</text></g>
    </g>
    <text x="32" y="485" font-family="-apple-system,BlinkMacSystemFont,'Segoe UI',sans-serif" font-size="12" font-weight="800" letter-spacing="5" fill="#174f43" opacity=".58">PACIFIC</text>
  </g>

  <g transform="translate(72 72)">
    <text x="0" y="0" dominant-baseline="hanging" font-family="-apple-system,BlinkMacSystemFont,'Segoe UI',sans-serif" font-size="17" font-weight="800" letter-spacing="4" fill="#174f43">HISTORICAL ARCHIVE · 2026</text>
    <text x="0" y="76" font-family="Georgia,'Times New Roman',serif" font-size="72" font-weight="500" letter-spacing="-3" fill="#17201e">Pebble Beach</text>
    <text x="0" y="148" font-family="Georgia,'Times New Roman',serif" font-size="54" font-style="italic" letter-spacing="-2" fill="#c5522d">Monterey Car Week</text>
    <text x="0" y="207" font-family="-apple-system,BlinkMacSystemFont,'Segoe UI',sans-serif" font-size="24" font-weight="700" fill="#33433f">AUG 7–17 · 11 DAYS</text>

    <line x1="0" y1="252" x2="562" y2="252" stroke="#bcc6bf" stroke-width="2"/>

    <g transform="translate(0 292)" font-family="-apple-system,BlinkMacSystemFont,'Segoe UI',sans-serif">
      <g>
        <rect x="0" y="0" width="162" height="92" rx="16" fill="#fffdf7" stroke="#d0d5ce"/>
        <text x="18" y="31" font-size="12" font-weight="800" letter-spacing="1.5" fill="#68756f">WHEN &amp; WHERE</text>
        <text x="18" y="61" font-size="18" font-weight="700" fill="#17201e">11-day itinerary</text>
      </g>
      <g transform="translate(178 0)">
        <rect x="0" y="0" width="162" height="92" rx="16" fill="#fffdf7" stroke="#d0d5ce"/>
        <text x="18" y="31" font-size="12" font-weight="800" letter-spacing="1.5" fill="#68756f">WHAT’S WORTH IT</text>
        <text x="18" y="61" font-size="18" font-weight="700" fill="#17201e">$0–650 picks</text>
      </g>
      <g transform="translate(356 0)">
        <rect x="0" y="0" width="206" height="92" rx="16" fill="#fffdf7" stroke="#d0d5ce"/>
        <text x="18" y="31" font-size="12" font-weight="800" letter-spacing="1.5" fill="#68756f">STAY &amp; TRAVEL</text>
        <text x="18" y="61" font-size="18" font-weight="700" fill="#17201e">price + commute</text>
      </g>
    </g>

    <g transform="translate(0 448)">
      <rect x="0" y="0" width="322" height="48" rx="24" fill="#174f43"/>
      <circle cx="25" cy="24" r="5" fill="#9fd4c5"/>
      <text x="42" y="30" font-family="-apple-system,BlinkMacSystemFont,'Segoe UI',sans-serif" font-size="14" font-weight="700" fill="#fffdf7">Archived snapshot · not 2027 guidance</text>
    </g>
    <text x="562" y="492" text-anchor="end" font-family="-apple-system,BlinkMacSystemFont,'Segoe UI',sans-serif" font-size="14" font-weight="800" letter-spacing="4" fill="#174f43">QROST</text>
  </g>
</svg>
